<?xml version="1.0" encoding="UTF-8"?>
<svg width="63px" height="77px" viewBox="0 0 63 77" version="1.1" xmlns="http://www.w3.org/2000/svg" xmlns:xlink="http://www.w3.org/1999/xlink">
    <!-- Generator: sketchtool 50 (54983) - http://www.bohemiancoding.com/sketch -->
    <title>28795DEF-812D-4D8E-98A6-3913FC7EF219</title>
    <desc>Created with sketchtool.</desc>
    <defs></defs>
    <g id="Pages" stroke="none" stroke-width="1" fill="none" fill-rule="evenodd">
        <g id="Main-New---focus" transform="translate(-610.000000, -653.000000)">
            <g id="sum" transform="translate(250.000000, 621.000000)">
                <g id="1" transform="translate(265.000000, 0.000000)">
                    <g id="icon-hadash" transform="translate(95.000000, 32.000000)">
                        <path d="M6.31559176,75.4111888 L5.76835369,76.3283484 L3.93717017,75.2319981 L4.48440824,74.3148386 C10.5568715,64.1375172 21.5459792,57.7671233 33.63777,57.7671233 C45.0405551,57.7671233 55.484961,63.4270374 61.7494039,72.6778602 L62.3481967,73.562109 L60.5827222,74.7617452 L59.9839294,73.8774964 C54.1127394,65.2073975 44.3264262,59.9041096 33.63777,59.9041096 C22.3036899,59.9041096 12.0064521,65.873426 6.31559176,75.4111888 Z" id="Stroke-1" fill="#4A4A4A" fill-rule="nonzero"></path>
                        <path d="M39.3393732,27.6553161 C41.5725265,25.4182404 44.4436968,23.8367335 47.7922489,22.816862 C51.9194683,21.559831 56.2328318,21.2659567 59.9887372,21.507549 C60.3976186,21.5338496 60.6913328,21.5605794 60.8543795,21.5793006 C61.3472713,21.6358951 61.736138,22.0254276 61.7926357,22.5191635 C61.8113242,22.682483 61.8380072,22.9766886 61.8642617,23.3862546 C62.1054456,27.1486775 61.8120388,31.4695495 60.5570472,35.6039575 C59.5389575,38.9579222 57.9602886,41.8337941 55.7272935,44.0707113 C53.4941402,46.307787 50.6229699,47.8892939 47.2744178,48.9091654 C43.1471984,50.1661964 38.8338348,50.4600707 35.0779294,50.2184784 C34.669048,50.1921778 34.3753338,50.165448 34.2122872,50.1467268 C33.7193953,50.0901323 33.3305287,49.7005998 33.274031,49.2068639 C33.2553425,49.0435444 33.2286595,48.7493388 33.2024049,48.3397728 C32.961221,44.5773499 33.2546278,40.2564778 34.5096195,36.1220699 C35.5277091,32.7681052 37.1063781,29.8922333 39.3393732,27.6553161 Z M48.4128378,24.8614303 C45.3778356,25.7858037 42.8113041,27.1995085 40.8479009,29.1663603 C38.8846191,31.1330905 37.4734436,33.7038383 36.5506829,36.7437544 C35.394449,40.5528175 35.1110147,44.5896203 35.3244731,48.0927746 C38.8215706,48.3065989 42.8513747,48.022714 46.6538288,46.8645971 C49.6888311,45.9402237 52.2553626,44.5265189 54.2187658,42.5596671 C56.1820476,40.5929369 57.593223,38.0221891 58.5159838,34.982273 C59.6722177,31.1732099 59.955652,27.1364071 59.7421936,23.6332528 C56.2450961,23.4194285 52.215292,23.7033134 48.4128378,24.8614303 Z" id="Stroke-3" fill="#4A4A4A" fill-rule="nonzero"></path>
                        <path d="M60.2087495,21.6658149 C60.672446,21.3018351 61.3429058,21.383315 61.7062634,21.8478055 C62.0696211,22.312296 61.9882804,22.9839039 61.5245839,23.3478837 C61.47253,23.3887436 61.3701437,23.4695947 61.2207857,23.588289 C60.9708894,23.7868808 60.6807342,24.0190261 60.3536819,24.2825755 C59.4182494,25.0363776 58.3754985,25.8900589 57.2523444,26.8264019 C54.0437841,29.501291 50.835508,32.300989 47.8435669,35.0868233 C46.1916636,36.6249314 44.6505247,38.1181026 43.2410513,39.5527231 C39.2280167,43.6373562 36.4245678,47.1016696 35.1577208,49.6896082 C34.8983535,50.2194486 34.2593086,50.4383503 33.730374,50.1785388 C33.2014394,49.9187274 32.9829119,49.2785882 33.2422792,48.7487479 C34.6363232,45.9009687 37.5578701,42.2907178 41.7205577,38.0537616 C43.1535411,36.5952117 44.7171601,35.0802601 46.3911413,33.5215949 C49.4145245,30.7064846 52.6512386,27.8819702 55.8876686,25.1838468 C57.020261,24.2396354 58.072132,23.3784877 59.0164884,22.6174944 C59.3473622,22.3508655 59.6412842,22.1157065 59.8949027,21.9141566 C60.0476537,21.792766 60.1533868,21.7092719 60.2087495,21.6658149 Z" id="Stroke-5" fill="#4A4A4A" fill-rule="nonzero"></path>
                        <g id="Group-10" transform="translate(32.133333, 28.986301)">
                            <path d="M1.88597333,1.79513544 L1.88597333,27.9368889" id="Fill-7" fill="#EAF9DE"></path>
                            <polygon id="Stroke-9" fill="#4A4A4A" fill-rule="nonzero" points="0.819306667 0.726642287 2.95264 0.726642287 2.95264 29.005382 0.819306667 29.005382"></polygon>
                        </g>
                        <path d="M27.0425415,6.08247166 C36.0615296,14.0632191 33.9962026,31.0822191 33.9962026,31.0822191 C33.9962026,31.0822191 17.3095404,35.1591481 8.29055224,27.177223 C-0.727255694,19.1964755 1.33689115,2.17865317 1.33689115,2.17865317 C1.33689115,2.17865317 18.0235534,-1.89945345 27.0425415,6.08247166" id="Fill-11" fill="#FE8255"></path>
                        <path d="M33.0339712,29.8500155 C33.3146486,25.7804497 33.0797661,21.1698611 31.9438181,16.8331199 C30.8493692,12.6548108 29.0165618,9.25493317 26.3363547,6.88326401 C23.8834106,4.71237575 20.6539061,3.345107 16.8214911,2.67883079 C12.7860482,1.9772576 8.44213582,2.09371518 4.29837137,2.71455807 C3.56774452,2.82402483 2.90603946,2.94100883 2.325141,3.05779205 C2.3166461,3.16612699 2.30795838,3.28366478 2.29924507,3.41006894 C2.01872547,7.47957138 2.25376611,12.0903578 3.38991243,16.4273325 C4.48439317,20.6052585 6.31702233,24.004885 8.99679762,26.3764824 C11.4496958,28.5473301 14.6792172,29.9146992 18.511648,30.5811484 C22.5473752,31.2829504 26.8915787,31.1666772 31.0355168,30.5460076 C31.7658645,30.4366178 32.4273191,30.3197171 33.0080056,30.203016 C33.016523,30.0944734 33.0252343,29.9766938 33.0339712,29.8500155 Z M34.0073028,16.2907666 C35.2115963,20.8884325 35.4575239,25.7158312 35.1622314,29.9973044 C35.1392497,30.3305184 35.1145478,30.6268317 35.0897293,30.8831222 C35.0745528,31.0398436 35.062468,31.1502318 35.0550743,31.2111581 C35.0014861,31.6527431 34.6803864,32.0148737 34.2489583,32.1202813 C34.1021961,32.1561386 33.8341796,32.2162046 33.4570657,32.2923254 C32.8355606,32.4177767 32.1295015,32.5428954 31.3509894,32.6594991 C27.0001391,33.3111595 22.4399289,33.4332142 18.1467588,32.6866436 C13.9530434,31.9573679 10.3634568,30.4375485 7.58431347,27.9779694 C4.55091003,25.2934116 2.52004734,21.5260511 1.32644383,16.969747 C0.121945318,12.3718537 -0.124147085,7.54426506 0.170979416,3.26286014 C0.193934234,2.92985422 0.218607206,2.63372914 0.243396727,2.37760396 C0.258555578,2.22098281 0.270626446,2.11066558 0.278011695,2.04977802 C0.331573075,1.60819218 0.65264785,1.24604357 1.08406651,1.14060778 C1.23086913,1.10473022 1.49895898,1.04463005 1.87617391,0.968465799 C2.49784667,0.842942554 3.20409064,0.717752115 3.98279966,0.601081403 C8.33347763,-0.0507624677 12.8934002,-0.173011153 17.1862897,0.573319862 C21.3800061,1.30240935 24.9695991,2.8221243 27.7487577,5.2817052 C30.7826606,7.96636639 32.81373,11.7340297 34.0073028,16.2907666 Z" id="Stroke-13" fill="#4A4A4A" fill-rule="nonzero"></path>
                        <g id="Group-18" transform="translate(0.066667, 1.136986)">
                            <path d="M1.27026286,1.38418586 C1.27026286,1.38418586 23.3068343,13.0054593 33.9507581,30.7562933" id="Fill-15"></path>
                            <path d="M0.773358916,2.32965811 C0.252081612,2.05475572 0.0519743341,1.40860096 0.326406803,0.886431059 C0.600839271,0.364261156 1.24588949,0.16381123 1.7671668,0.438713617 C1.84779387,0.481233353 1.99860216,0.562530399 2.2149258,0.68184774 C2.57203851,0.878819919 2.98530849,1.11228583 3.45007156,1.38149158 C4.77428261,2.14851729 6.24829179,3.04936052 7.83480989,4.07804477 C12.3662357,7.01618099 16.8975273,10.3929611 21.1307343,14.1624086 C26.796273,19.2072721 31.4854332,24.5697704 34.8651524,30.2061161 C35.1684874,30.7119869 35.0050008,31.3683988 34.4999947,31.6722533 C33.9949887,31.9761077 33.3396989,31.8123411 33.0363638,31.3064704 C29.7793179,25.8747064 25.2288169,20.6707779 19.7133925,15.7595834 C15.5676867,12.068051 11.1215719,8.75474587 6.67559116,5.87201144 C5.12001698,4.86339096 3.67636905,3.98110306 2.38216988,3.2314612 C1.93048936,2.96983329 1.53018188,2.74369019 1.18593471,2.55381424 C0.981442416,2.4410227 0.84235529,2.36604425 0.773358916,2.32965811 Z" id="Stroke-17" fill="#4A4A4A" fill-rule="nonzero"></path>
                        </g>
                        <g id="Group-22" transform="translate(20.400000, 2.205479)">
                            <path d="M1.07029333,0.906448532 L3.18122667,17.0498536" id="Fill-19" fill="#EAF9DE"></path>
                            <polygon id="Stroke-21" fill="#4A4A4A" fill-rule="nonzero" points="0.0126610507 1.04521998 2.12792562 0.767677088 4.23885895 16.9110822 2.12359438 17.1886251"></polygon>
                        </g>
                        <g id="Group-26" transform="translate(1.066667, 10.821918)">
                            <path d="M0.0660512821,1.9433726 L15.5245128,1.9433726" id="Fill-23" fill="#EAF9DE"></path>
                            <polygon id="Stroke-25" fill="#4A4A4A" fill-rule="nonzero" points="0.0660512821 3.01186575 0.0660512821 0.874879452 15.5245128 0.874879452 15.5245128 3.01186575"></polygon>
                        </g>
                        <g id="Group-30" transform="translate(5.400000, 23.643836)">
                            <path d="M23.5813232,1.68458356 L0.979113651,2.28935068" id="Fill-27" fill="#EAF9DE"></path>
                            <polygon id="Stroke-29" fill="#4A4A4A" fill-rule="nonzero" points="23.5528413 0.616471387 23.609805 2.75269574 1.00759549 3.35746286 0.950631807 1.22123851"></polygon>
                        </g>
                        <g id="Group-34" transform="translate(39.600000, 23.575342)">
                            <path d="M4.95882667,0.782381213 L1.82922667,16.2602677" id="Fill-31" fill="#EAF9DE"></path>
                            <polygon id="Stroke-33" fill="#4A4A4A" fill-rule="nonzero" points="3.14810064 1.95980632 5.25189936 2.31416628 2.88112603 16.4374477 0.777327305 16.0830877"></polygon>
                        </g>
                        <g id="Group-38" transform="translate(47.066667, 32.123288)">
                            <path d="M2.50023758,1.0445589 L14.4030739,0.740038356" id="Fill-35" fill="#EAF9DE"></path>
                            <polygon id="Stroke-37" fill="#4A4A4A" fill-rule="nonzero" points="1.02723393 2.44115853 0.972766074 0.304868866 12.8756024 0.000348317732 12.9300703 2.13663798"></polygon>
                        </g>
                    </g>
                </g>
            </g>
        </g>
    </g>
</svg>