<?xml version="1.0" encoding="UTF-8"?>
<svg width="55px" height="62px" viewBox="0 0 55 62" version="1.1" xmlns="http://www.w3.org/2000/svg" xmlns:xlink="http://www.w3.org/1999/xlink">
    <!-- Generator: sketchtool 49.3 (51167) - http://www.bohemiancoding.com/sketch -->
    <title>DAFEF75E-01C7-4FB1-A6A6-B7103FBA06D5</title>
    <desc>Created with sketchtool.</desc>
    <defs>
        <polygon id="path-1" points="0 68.845 54.177 68.845 54.177 0 0 0"></polygon>
    </defs>
    <g id="Pages" stroke="none" stroke-width="1" fill="none" fill-rule="evenodd">
        <g id="Main-New---focus" transform="translate(-897.000000, -664.000000)">
            <g id="sum" transform="translate(250.000000, 621.000000)">
                <g id="2" transform="translate(549.000000, 11.000000)">
                    <g id="icon-flag" transform="translate(98.000000, 32.000000)">
                        <path d="M6.0872,59.2726 C6.10392123,59.2726 6.1222,59.2543091 6.1222,59.2366 L6.1222,2.4576 C6.1222,2.43940396 6.10343354,2.4206 6.0872,2.4206 L3.9542,2.4206 C3.93697234,2.4206 3.9182,2.43939734 3.9182,2.4576 L3.9182,59.2366 C3.9182,59.2543153 3.93648475,59.2726 3.9542,59.2726 L6.0872,59.2726 Z M6.0872,61.2726 L3.9542,61.2726 C2.83191525,61.2726 1.9182,60.3588847 1.9182,59.2366 L1.9182,2.4576 C1.9182,1.33542316 2.83180664,0.4206 3.9542,0.4206 L6.0872,0.4206 C7.20889797,0.4206 8.1222,1.33572742 8.1222,2.4576 L8.1222,59.2366 C8.1222,60.3585805 7.20878902,61.2726 6.0872,61.2726 Z" id="Stroke-1" fill="#4A4A4A" fill-rule="nonzero"></path>
                        <path d="M46.8587,8.0695 C42.8137,8.8605 38.7347,8.8605 34.6887,8.0695 L29.5567,7.0675 L24.4247,6.1185 C20.3797,5.3285 16.2997,5.3285 12.2547,6.1185 L7.1227,7.1215 L7.1227,32.5255 L12.2547,31.5225 C16.2997,30.7325 20.3797,30.7325 24.4247,31.5225 L29.5567,32.4705 L34.6887,33.4735 C38.7347,34.2635 42.8137,34.2635 46.8587,33.4735 L51.9917,32.4705 L43.3797,19.7965 L51.9917,7.0675 L46.8587,8.0695 Z" id="Fill-3" fill="#71DECF"></path>
                        <path d="M53.6702039,33.1614287 L52.1834754,33.4519388 L47.0503814,34.4549572 C42.8787973,35.2696794 38.669634,35.2696794 34.4968886,34.4549318 L29.3750499,33.4538632 L24.2330186,32.5039572 C20.3146103,31.7386809 16.3647897,31.7386809 12.4465114,32.5039318 L6.1227,33.7398599 L6.1227,6.29802088 L6.9308886,6.1400682 L12.0630186,5.13704279 C16.2346103,4.32231907 20.4447897,4.32231907 24.6065354,5.13517102 L29.7483272,6.08603221 L34.8805694,7.08807953 C38.7998483,7.85430533 42.7485204,7.85430533 46.6667849,7.08808847 L54.1770214,5.62203406 L44.5878914,19.795285 L53.6702039,33.1614287 Z M34.4970728,9.05096779 L29.3748646,8.05082898 L24.2330186,7.09995721 C20.3146103,6.33468093 16.3647897,6.33468093 12.4465114,7.0999318 L8.1227,7.94497912 L8.1227,31.3111401 L12.0630186,30.5410428 C16.2346103,29.7263191 20.4447897,29.7263191 24.6063501,30.5391368 L29.7485114,31.4890682 L34.8803357,32.4920339 C38.799766,33.2573206 42.7486027,33.2573206 46.6669246,32.4920612 L50.3131961,31.7795713 L42.1715086,19.797715 L49.8063786,8.51296594 L47.0504506,9.05094369 C42.8787699,9.86669467 38.6694973,9.86668403 34.4970728,9.05096779 Z" id="Stroke-5" fill="#4A4A4A" fill-rule="nonzero"></path>
                        <mask id="mask-2" fill="white">
                            <use xlink:href="#path-1"></use>
                        </mask>
                        <g id="Clip-8"></g>
                        <polygon id="Fill-7" fill="#4A4A4A" mask="url(#mask-2)" points="0 61.8452 9.947 61.8452 9.947 58.7002 0 58.7002"></polygon>
                        <path d="M0.5325,-2.5116 C0.5325,-4.99058374 2.54191416,-6.9996 5.0205,-6.9996 C7.49918807,-6.9996 9.5095,-4.99048184 9.5095,-2.5116 C9.5095,-0.0327181613 7.49918807,1.9764 5.0205,1.9764 C2.54191416,1.9764 0.5325,-0.0326162592 0.5325,-2.5116 Z M2.5325,-2.5116 C2.5325,-1.13727443 3.64639501,-0.0236 5.0205,-0.0236 C6.39488442,-0.0236 7.5095,-1.13755369 7.5095,-2.5116 C7.5095,-3.88564631 6.39488442,-4.9996 5.0205,-4.9996 C3.64639501,-4.9996 2.5325,-3.88592557 2.5325,-2.5116 Z" id="Stroke-9" fill="#4A4A4A" fill-rule="nonzero" mask="url(#mask-2)"></path>
                    </g>
                </g>
            </g>
        </g>
    </g>
</svg>